<?xml version="1.0" standalone="no"?>
<!DOCTYPE svg PUBLIC "-//W3C//DTD SVG 20010904//EN"
 "http://www.w3.org/TR/2001/REC-SVG-20010904/DTD/svg10.dtd">
<svg version="1.0" xmlns="http://www.w3.org/2000/svg"
 width="562.000000pt" height="562.000000pt" viewBox="0 0 562.000000 562.000000"
 preserveAspectRatio="xMidYMid meet">
<metadata>
Created by potrace 1.11, written by Peter Selinger 2001-2013
</metadata>
<g transform="translate(0.000000,562.000000) scale(0.100000,-0.100000)"
fill="#000000" stroke="none">
<path d="M2619 5616 c-2 -2 -38 -7 -79 -10 -41 -4 -86 -9 -100 -10 -83 -12
-117 -17 -130 -21 -8 -2 -31 -6 -50 -9 -19 -3 -93 -22 -165 -41 -71 -20 -137
-37 -145 -39 -89 -24 -349 -135 -484 -209 -103 -56 -257 -154 -268 -171 -4 -6
-8 -7 -8 -3 0 4 -24 -11 -53 -35 -30 -24 -67 -53 -84 -66 -67 -51 -102 -82
-208 -187 -107 -106 -173 -177 -225 -245 -14 -18 -30 -37 -35 -44 -6 -6 -26
-33 -45 -61 -18 -27 -37 -52 -40 -55 -8 -6 -121 -186 -138 -220 -7 -14 -23
-44 -36 -67 -14 -24 -22 -43 -19 -43 4 0 -1 -8 -9 -17 -9 -10 -21 -35 -29 -55
-7 -21 -17 -38 -21 -38 -4 0 -8 -9 -8 -19 0 -11 -4 -22 -9 -25 -5 -3 -12 -18
-16 -33 -3 -16 -13 -41 -20 -58 -36 -80 -111 -324 -130 -426 -3 -13 -7 -35
-10 -49 -11 -54 -18 -90 -30 -182 -27 -191 -27 -570 0 -743 15 -100 30 -177
42 -230 8 -33 16 -70 18 -81 22 -100 102 -333 153 -444 14 -30 26 -57 27 -60
15 -55 244 -440 266 -448 5 -2 9 -8 9 -14 0 -6 20 -35 45 -64 25 -28 45 -54
45 -57 0 -25 326 -347 435 -429 17 -13 35 -26 40 -31 98 -80 295 -203 444
-278 121 -59 308 -138 350 -146 14 -2 29 -7 35 -11 6 -3 16 -8 21 -9 6 -1 48
-13 95 -27 47 -14 100 -28 119 -31 19 -3 37 -8 41 -10 6 -4 155 -31 221 -40
103 -14 213 -20 379 -20 194 0 261 5 430 29 34 4 111 17 133 22 19 4 24 6 118
28 74 17 318 96 376 121 129 57 256 117 263 125 3 3 20 12 38 19 17 8 32 17
32 22 0 5 3 8 8 7 12 -3 62 24 62 34 0 4 5 8 12 8 6 0 26 11 44 25 18 14 37
25 43 25 6 0 11 5 11 10 0 6 5 10 11 10 6 0 43 25 82 55 40 30 85 65 101 78
16 12 40 32 53 44 13 12 23 20 23 18 0 -14 269 266 341 355 86 105 236 324
261 380 7 17 16 30 20 30 3 0 9 13 13 30 4 16 11 32 16 36 17 10 119 243 166
379 24 69 69 227 79 275 3 13 11 54 19 90 8 36 17 88 21 116 3 27 8 58 11 69
17 82 25 507 10 630 -3 33 -8 76 -11 96 -7 64 -27 183 -36 214 -5 17 -11 44
-14 60 -28 175 -159 514 -285 740 -45 80 -199 314 -225 341 -12 12 -28 31 -36
43 -42 63 -287 315 -369 381 -24 19 -49 40 -55 46 -25 24 -205 154 -214 154
-5 0 -17 9 -27 20 -10 11 -24 20 -31 20 -7 0 -19 6 -26 13 -7 8 -36 26 -63 41
-28 16 -56 33 -62 38 -7 6 -13 7 -13 4 0 -4 -12 1 -27 11 -76 51 -387 178
-509 208 -10 3 -62 16 -114 30 -93 25 -233 52 -314 61 -23 2 -54 7 -71 10 -34
5 -481 15 -486 10z"/>
</g>
</svg>
