<?xml version="1.0" encoding="utf-8"?>
<!-- Generator: Adobe Illustrator 26.0.3, SVG Export Plug-In . SVG Version: 6.00 Build 0)  -->
<svg version="1.1" id="Layer_1" xmlns="http://www.w3.org/2000/svg" xmlns:xlink="http://www.w3.org/1999/xlink" x="0px" y="0px"
	 viewBox="0 0 1379.4 336.1" style="enable-background:new 0 0 1379.4 336.1;" xml:space="preserve" fill="white">
<path d="M521.6,123.7h-55.4l-11.5,26.1h-15.4l47.2-104.3h14.7l47.4,104.3H533L521.6,123.7z M516.4,111.8l-22.5-51.1l-22.5,51.1
	H516.4z"/>
<path d="M632.6,70.8v79h-14.3V83.3h-34l-0.9,17.6c-0.3,8.9-1.3,17.8-2.8,26.6c-1.4,7.1-3.7,12.8-6.8,17.1c-3.2,4.3-7.6,6.4-13.2,6.4
	c-3-0.1-5.9-0.5-8.8-1.4l0.9-12.1c1.2,0.3,2.4,0.4,3.6,0.4c3.7,0.1,7.2-1.9,8.9-5.2c2.1-3.8,3.4-8,3.9-12.4
	c0.6-4.8,1.1-11.6,1.6-20.4l1.3-29.2L632.6,70.8z"/>
<path d="M719.7,104.5c5.3,4.5,7.9,10.8,7.9,18.9c0,8.5-2.9,15.1-8.6,19.7c-5.7,4.6-13.9,6.9-24.5,6.8l-34.3-0.1v-79h14.3v26.7
	l22.2,0.2C706.8,97.7,714.5,100,719.7,104.5z M708,135.2c3.3-2.7,5-6.6,5-11.9c0-5.2-1.6-8.9-4.8-11.3c-3.2-2.4-8.2-3.6-14.8-3.7
	l-18.8-0.3v31l18.8,0.1C699.8,139.1,704.7,137.8,708,135.2z"/>
<path d="M833.4,139c-8.1,7.1-19.6,11-34.4,11.8v27.9h-14v-27.9c-14.8-0.8-26.3-4.7-34.3-11.7s-12.1-16.7-12.1-29
	c0-12.2,4-21.8,12.1-28.6c8-6.9,19.5-10.7,34.4-11.5V39.2h14v30.8c14.8,0.8,26.3,4.6,34.4,11.5c8.1,6.9,12.2,16.4,12.2,28.5
	C845.6,122.4,841.6,132,833.4,139z M760.8,130c5.4,4.8,13.5,7.5,24.2,8.2V82.7c-10.8,0.7-18.9,3.4-24.3,8s-8,11.1-8,19.4
	C752.7,118.6,755.4,125.2,760.8,130z M831.5,110.2c0-8.3-2.7-14.8-8.2-19.4c-5.5-4.6-13.6-7.3-24.3-8v55.6
	C820.7,136.6,831.5,127.2,831.5,110.2L831.5,110.2z"/>
<path d="M918.4,78.1c5.8,5.4,8.7,13.4,8.7,24v47.7h-13.6v-10.4c-2.5,3.8-6,6.7-10.2,8.4c-5,2-10.3,3-15.7,2.9
	c-8.8,0-15.9-2.1-21.2-6.4c-5.2-4-8.2-10.3-8-16.8c0-6.9,2.5-12.5,7.6-16.8s13.1-6.3,24.1-6.3h22.7v-2.8c0-6.2-1.8-10.9-5.4-14.2
	c-3.6-3.3-8.8-4.9-15.8-4.9c-4.7,0-9.3,0.8-13.7,2.3c-4.1,1.3-8,3.4-11.3,6.2l-6-10.7c4.3-3.4,9.3-6,14.6-7.5
	c5.8-1.8,11.9-2.6,18-2.6C904.2,70.1,912.6,72.7,918.4,78.1z M904.2,136c4-2.4,7-6,8.6-10.4v-11h-22.1c-12.1,0-18.2,4.1-18.2,12.2
	c-0.1,3.7,1.6,7.2,4.6,9.4c3.1,2.3,7.4,3.4,12.8,3.4C895,139.8,899.9,138.5,904.2,136z"/>
<path d="M469,288.3c-8.2-4.4-15-11-19.7-19.1c-9.5-17-9.5-37.7,0-54.7c4.7-8.1,11.5-14.7,19.7-19.1c8.7-4.7,18.4-7.1,28.3-6.9
	c7.6-0.1,15.2,1.3,22.3,4.1c6.6,2.6,12.6,6.8,17.3,12.2l-9.7,9.4c-7.8-8.2-17.6-12.4-29.4-12.4c-7.3-0.1-14.6,1.7-21,5.2
	c-6.1,3.3-11.2,8.3-14.7,14.4c-7.1,12.8-7.1,28.2,0,41c3.5,6.1,8.5,11,14.7,14.4c6.4,3.5,13.7,5.3,21,5.2
	c11.1,0.2,21.8-4.3,29.4-12.5l9.7,9.4c-4.8,5.4-10.7,9.5-17.4,12.2c-7.1,2.8-14.7,4.3-22.4,4.2C487.4,295.3,477.7,292.9,469,288.3z"
	/>
<path d="M623,259.3h-64.1c0.7,6.6,4,12.6,9.2,16.8c5.2,4.2,11.7,6.3,19.5,6.3c9.4,0,17-3.2,22.8-9.5l7.9,9.2
	c-3.6,4.2-8.2,7.5-13.3,9.5c-13,4.9-27.5,4.3-40-1.9c-6.3-3.2-11.5-8.2-15-14.4c-3.6-6.4-5.4-13.6-5.3-20.9
	c-0.1-7.2,1.7-14.4,5.1-20.7c3.3-6,8.2-11,14.2-14.4c6.2-3.5,13.2-5.2,20.3-5.1c7.1-0.1,14,1.7,20.2,5.1c5.9,3.4,10.7,8.4,13.8,14.4
	c3.4,6.5,5.1,13.8,5,21.2C623.2,256.4,623.2,257.8,623,259.3z M567,232.6c-4.7,4.3-7.6,10.1-8.1,16.4h50.7
	c-0.6-6.3-3.5-12.1-8.1-16.3c-4.7-4.3-10.9-6.5-17.2-6.3C577.4,226.3,571.6,228.4,567,232.6z"/>
<path d="M707.9,219.4c6,3.3,10.9,8.2,14.2,14.2c3.5,6.4,5.3,13.7,5.1,21c0.1,7.4-1.6,14.6-5.1,21.1c-3.3,6-8.2,10.9-14.2,14.2
	c-6.3,3.4-13.4,5.2-20.6,5.1c-5.4,0.1-10.7-1.1-15.6-3.3c-4.7-2.2-8.8-5.4-12-9.5v40.8h-14.3V215h13.7v12.5
	c3.1-4.3,7.3-7.7,12.1-9.9c5.1-2.3,10.6-3.4,16.1-3.4C694.5,214.1,701.6,215.9,707.9,219.4z M699.8,278.9c4-2.3,7.3-5.7,9.5-9.8
	c4.7-9.1,4.7-19.9,0-29.1c-2.2-4.1-5.5-7.5-9.5-9.8c-4.2-2.3-8.9-3.5-13.6-3.4c-4.7-0.1-9.4,1.1-13.5,3.5c-4,2.3-7.3,5.7-9.5,9.8
	c-2.4,4.4-3.6,9.4-3.5,14.4c-0.1,5,1.1,10,3.4,14.5c2.2,4.1,5.5,7.5,9.5,9.8C681,283.5,691.3,283.5,699.8,278.9L699.8,278.9z"/>
<path d="M803.8,227.5h-28.9V294h-14.3v-66.5h-28.9V215h72.1V227.5z"/>
<path d="M818.5,215h14.3v57.5l48.4-57.5h13v79h-14.3v-57.5L831.6,294h-13.1V215z"/>
<path d="M1009.3,283.3c-8.1,7.1-19.6,11-34.4,11.7v27.9h-14V295c-14.8-0.8-26.3-4.7-34.3-11.7s-12.1-16.7-12.1-29
	c0-12.2,4-21.8,12.1-28.6c8-6.9,19.5-10.7,34.4-11.5v-30.8h14v30.8c14.8,0.8,26.3,4.6,34.4,11.6c8.1,6.9,12.2,16.4,12.2,28.5
	C1021.5,266.6,1017.5,276.2,1009.3,283.3z M936.7,274.2c5.4,4.8,13.5,7.5,24.2,8.2V227c-10.8,0.7-18.9,3.3-24.3,8s-8,11.1-8,19.4
	C928.6,262.8,931.3,269.4,936.7,274.2z M1007.4,254.4c0-8.3-2.7-14.8-8.2-19.4c-5.5-4.6-13.6-7.3-24.3-8v55.6
	C996.6,280.8,1007.4,271.5,1007.4,254.4z"/>
<path d="M1041.8,215h14.3v57.5l48.4-57.5h13v79h-14.3v-57.5l-48.3,57.5h-13.1V215z"/>
<path d="M1175.9,260.6h-16.4V294h-14.3v-79h14.3v33.4h16.7l25.6-33.4h15.3l-30,38l32,41h-16.8L1175.9,260.6z"/>
<path d="M1286.1,222.3c5.8,5.3,8.7,13.3,8.7,24V294h-13.6v-10.4c-2.5,3.8-6.1,6.7-10.2,8.4c-5,2-10.3,3-15.7,2.9
	c-8.8,0-15.9-2.1-21.2-6.4c-5.2-4-8.2-10.3-8-16.8c0-6.9,2.5-12.5,7.6-16.8c5.1-4.2,13.1-6.3,24.1-6.3h22.7v-2.8
	c0-6.2-1.8-10.9-5.4-14.1s-8.8-4.9-15.8-4.9c-4.7,0-9.3,0.8-13.7,2.3c-4.1,1.3-8,3.4-11.3,6.2l-6-10.7c4.3-3.4,9.3-6,14.6-7.5
	c5.8-1.8,11.9-2.6,18-2.6C1271.9,214.3,1280.3,217,1286.1,222.3z M1271.9,280.2c4-2.4,7-6,8.7-10.4v-11h-22.1
	c-12.1,0-18.2,4.1-18.2,12.2c-0.1,3.7,1.6,7.2,4.6,9.4c3.1,2.3,7.4,3.4,12.8,3.4C1262.7,284,1267.6,282.7,1271.9,280.2z"/>
<path d="M1379.4,227.5h-28.9V294h-14.3v-66.5h-28.9V215h72.1L1379.4,227.5z"/>
<path d="M340.2,335.6h-45.5c-1.7,0-3-1.3-3-3V160.7c0-1.7,1.3-3,3-3h45.5c1.7,0,3,1.3,3,3v171.9
	C343.2,334.3,341.8,335.6,340.2,335.6z M297.7,329.6h39.5V163.7h-39.5V329.6z"/>
<path d="M271.1,335.6h-45.5c-1.7,0-3-1.3-3-3V198.1c0-1.7,1.3-3,3-3h45.5c1.7,0,3,1.3,3,3v134.5
	C274.1,334.3,272.8,335.6,271.1,335.6z M228.6,329.6h39.5V201.1h-39.5V329.6z"/>
<path d="M202,335.6h-45.5c-1.7,0-3-1.3-3-3v-98.3c0-1.7,1.3-3,3-3H202c1.7,0,3,1.3,3,3v98.3C205,334.3,203.7,335.6,202,335.6z
	 M159.6,329.6H199v-92.3h-39.5V329.6z"/>
<path d="M312.6,62.5c-3,0-5.9,0.6-8.6,1.6C273.4,26,229,3.1,180.6,0.3c0,0,0,0,0,0l0,0c-3.4-0.2-6.8-0.3-10.2-0.3
	C76,0-0.7,76.8-0.7,171.2c0,60.9,32.6,117.4,85.2,148v13.4c0,1.7,1.3,3,3,3H133c1.7,0,3-1.3,3-3v-63c0-1.7-1.3-3-3-3H87.5
	c-1.7,0-3,1.3-3,3v42.7c-21.7-13.2-39.7-31.1-53-51.9l40.4-12.7c4.2,3.8,9.7,6.1,15.8,6.1c13.1,0,23.7-10.6,23.7-23.7
	c0-4.7-1.4-9-3.7-12.7l31.7-34.6c4.3,4.1,10.1,6.7,16.4,6.7c13.1,0,23.7-10.6,23.7-23.7c0-2.1-0.3-4.2-0.8-6.2l48.5-1.4
	c3.9,7.7,11.9,13,21.1,13c13.1,0,23.7-10.6,23.7-23.7c0-4.5-1.3-8.7-3.4-12.3l30.1-29.6c3.9,2.8,8.7,4.5,13.8,4.5
	c13.1,0,23.7-10.6,23.7-23.7C336.3,73.1,325.6,62.5,312.6,62.5z M90.5,272.6H130v57H90.5V272.6z M298.6,67.1
	c-5.9,4.3-9.8,11.3-9.8,19.2c0,1,0.1,1.9,0.2,2.8h-27.7c-2.3-6.2-5-12.3-8-18.4C236,35.4,214.7,17.5,199.7,8.6
	C238.4,15.5,273.3,35.9,298.6,67.1z M294.4,101.4l-23.5,23.1c-1.7-9.9-4.2-19.7-7.4-29.4h27.1C291.5,97.4,292.8,99.5,294.4,101.4z
	 M167.4,145c-3.4-1.9-7.4-3-11.6-3c-13.1,0-23.7,10.6-23.7,23.7c0,0.9,0,1.7,0.1,2.5H74.5c-1.3-19.8,0.2-45.2,10-73.1h83V145z
	 M87.7,206.3c-2,0-4,0.3-5.9,0.7c-1.7-4.9-5.1-16.6-6.8-32.9h58.8c0.5,1.3,1.1,2.6,1.9,3.8l-31.8,34.7
	C99.6,208.7,93.9,206.3,87.7,206.3z M68.4,168.2H5.3C5.8,141.8,12.4,117,23.9,95h54.2C68.3,124,67.2,149.8,68.4,168.2z M86.6,89
	c2-5.2,4.3-10.4,6.9-15.7c14.8-30.1,32.7-46.8,45.1-55.4C151,9.2,160.5,6.6,162,6.2c1.8-0.1,3.6-0.1,5.4-0.2v83H86.6z M173.4,6.1
	c2.1,0,4.2,0.1,6.3,0.2c4.2,1.1,41.4,12.5,68.3,67.1c2.5,5.2,4.8,10.4,6.9,15.7h-81.5V6.1z M142.1,8.5
	c-15.1,8.9-36.5,26.8-53.9,62.2C85.1,76.9,82.5,83,80.2,89h-53C51.2,47.3,93,17,142.1,8.5z M5.3,174.2h63.5
	c1.7,17.5,5.5,29.9,7.3,35.1C68.9,213.3,64,221.1,64,230c0,4.7,1.4,9,3.7,12.7l-39.4,12.4C14,230.9,5.8,203.1,5.3,174.2z
	 M87.7,247.7c-9.8,0-17.7-7.9-17.7-17.7s7.9-17.7,17.7-17.7s17.7,7.9,17.7,17.7S97.4,247.7,87.7,247.7z M155.9,183.4
	c-9.8,0-17.7-7.9-17.7-17.7c0-9.8,7.9-17.7,17.7-17.7s17.7,7.9,17.7,17.7C173.6,175.4,165.6,183.4,155.9,183.4z M176.2,153.5
	c-0.8-1.4-1.7-2.6-2.8-3.8V95h83.7c4,11.3,6.8,22.9,8.5,34.6l-0.7,0.7c-4.3-4.2-10.1-6.7-16.5-6.7c-13.1,0-23.7,10.6-23.7,23.7
	c0,1.6,0.2,3.2,0.5,4.8L176.2,153.5z M248.4,165c-9.8,0-17.7-7.9-17.7-17.7s7.9-17.7,17.7-17.7s17.7,7.9,17.7,17.7
	S258.1,165,248.4,165z M312.6,103.9c-9.8,0-17.7-7.9-17.7-17.7s7.9-17.7,17.7-17.7s17.7,7.9,17.7,17.7S322.3,103.9,312.6,103.9z"/>
</svg>
