<?xml version="1.0" encoding="utf-8"?>
<!-- Generator: Adobe Illustrator 21.0.0, SVG Export Plug-In . SVG Version: 6.00 Build 0)  -->
<svg version="1.1" xmlns="http://www.w3.org/2000/svg" xmlns:xlink="http://www.w3.org/1999/xlink" x="0px" y="0px"
	 viewBox="0 0 436.2 80.4" style="enable-background:new 0 0 436.2 80.4;" xml:space="preserve">
<style type="text/css">
	.st0{fill:#133C78;}
	.st1{fill:#FFFFFF;stroke:#133C78;stroke-width:3;stroke-miterlimit:10;}
	.st2{fill:none;stroke:#F0E3AA;stroke-width:3;stroke-miterlimit:10;}
	.st3{fill:#1793AA;stroke:#FFFFFF;stroke-width:2;stroke-miterlimit:10;}
	.st4{fill:none;stroke:#FFFFFF;stroke-width:2;stroke-miterlimit:10;}
</style>
<g id="Layer_2">
	<g>
		<path class="st0" d="M122.5,45.2h2.7v6.6c-0.9,0.5-2,0.9-3.4,1.2c-1.4,0.3-2.8,0.5-4.2,0.5c-2.6,0-4.9-0.3-6.9-0.9
			c-2-0.6-3.8-1.5-5.2-2.8c-1.4-1.2-2.5-2.8-3.3-4.7c-0.8-1.9-1.1-4.2-1.1-6.8c0-2.7,0.4-5.1,1.3-7c0.8-1.9,2-3.5,3.4-4.7
			c1.4-1.2,3.1-2.1,5-2.7c1.9-0.6,3.8-0.8,5.9-0.8c1,0,1.9,0,2.7,0.1c0.8,0.1,1.5,0.2,2.2,0.3c0.7,0.1,1.3,0.3,1.8,0.5
			c0.6,0.2,1.1,0.4,1.6,0.6v7.2h-2.7v-4.4l-0.6-0.8c-0.3-0.1-0.8-0.3-1.4-0.5c-0.7-0.2-1.7-0.3-3.2-0.3c-1.5,0-2.9,0.2-4.2,0.7
			c-1.3,0.5-2.5,1.2-3.4,2.2c-1,1-1.7,2.3-2.3,3.9c-0.6,1.6-0.8,3.5-0.8,5.7c0,4,1,7.1,3,9.3c2,2.2,4.9,3.3,8.5,3.3
			c1,0,1.9-0.1,2.5-0.2c0.7-0.2,1.2-0.4,1.5-0.6l0.6-0.8V45.2z"/>
		<path class="st0" d="M140.5,36.9l9.2-11h-3.4v-2.4h10.4v2.4h-3.3l-10,11.2l11.9,13.5h2.6v2.4H151L140,39h-2.2v11.6h3.5v2.4h-12
			v-2.4h3.8V25.8h-3.8v-2.4h12v2.4h-3.5v11H140.5z"/>
		<path class="st0" d="M193.2,45.2h2.7v6.6c-0.9,0.5-2,0.9-3.4,1.2c-1.4,0.3-2.8,0.5-4.2,0.5c-2.6,0-4.9-0.3-6.9-0.9
			c-2-0.6-3.8-1.5-5.2-2.8c-1.4-1.2-2.5-2.8-3.3-4.7c-0.8-1.9-1.1-4.2-1.1-6.8c0-2.7,0.4-5.1,1.3-7c0.8-1.9,2-3.5,3.4-4.7
			c1.4-1.2,3.1-2.1,5-2.7c1.9-0.6,3.8-0.8,5.9-0.8c1,0,1.9,0,2.7,0.1c0.8,0.1,1.5,0.2,2.2,0.3c0.7,0.1,1.3,0.3,1.8,0.5
			c0.6,0.2,1.1,0.4,1.6,0.6v7.2h-2.7v-4.4l-0.6-0.8c-0.3-0.1-0.8-0.3-1.4-0.5c-0.7-0.2-1.7-0.3-3.2-0.3c-1.5,0-2.9,0.2-4.2,0.7
			c-1.3,0.5-2.5,1.2-3.4,2.2c-1,1-1.7,2.3-2.3,3.9c-0.6,1.6-0.8,3.5-0.8,5.7c0,4,1,7.1,3,9.3c2,2.2,4.9,3.3,8.5,3.3
			c1,0,1.9-0.1,2.5-0.2c0.7-0.2,1.2-0.4,1.5-0.6l0.6-0.8V45.2z"/>
		<path class="st0" d="M219.7,50c-0.7,1-1.8,1.9-3.1,2.5c-1.3,0.6-2.9,0.9-4.7,0.9c-1.9,0-3.5-0.3-4.9-0.8c-1.4-0.5-2.6-1.3-3.6-2.3
			c-1-1-1.7-2.2-2.2-3.6c-0.5-1.4-0.7-3-0.7-4.7c0-3.8,0.9-6.6,2.8-8.5c1.9-1.9,4.5-2.9,7.9-2.9c1.1,0,2.2,0.1,3.3,0.4
			c1.1,0.3,2,0.7,2.9,1.4c0.8,0.6,1.5,1.5,2,2.6c0.5,1.1,0.8,2.4,0.8,3.9c0,0.5,0,1-0.1,1.5c-0.1,0.5-0.1,1.1-0.3,1.7h-14.7
			c0,1.2,0.2,2.4,0.5,3.4c0.3,1,0.8,1.9,1.5,2.6c0.7,0.7,1.5,1.3,2.5,1.7c1,0.4,2.2,0.6,3.5,0.6c1.1,0,2.1-0.2,3.1-0.5
			c0.9-0.4,1.7-0.8,2.3-1.3L219.7,50z M211,32.4c-0.9,0-1.6,0.1-2.3,0.4c-0.7,0.3-1.2,0.7-1.7,1.3c-0.5,0.6-0.9,1.4-1.1,2.3
			c-0.3,1-0.5,2.2-0.5,3.6h10.2c0-0.3,0-0.5,0.1-0.8c0-0.3,0-0.5,0-0.7c0-1.8-0.4-3.3-1.1-4.4C213.7,32.9,212.6,32.4,211,32.4z"/>
		<path class="st0" d="M234.4,61.3h-10.6v-2.1h3.1V32.9h-3.1v-2.1h7.5v4.4h0c0.6-1.5,1.5-2.7,2.6-3.5c1.1-0.9,2.6-1.3,4.5-1.3
			c2.8,0,4.9,0.9,6.4,2.6c1.5,1.7,2.3,4.5,2.3,8.4c0,1.8-0.3,3.5-0.8,5c-0.5,1.5-1.3,2.7-2.2,3.8c-1,1-2.1,1.8-3.5,2.4
			c-1.4,0.5-2.9,0.8-4.6,0.8c-0.6,0-1.1,0-1.5,0c-0.4,0-0.8-0.1-1.2-0.1c-0.4-0.1-0.7-0.1-1.1-0.3c-0.4-0.1-0.7-0.2-1.1-0.4v6.6h3.1
			V61.3z M236.8,33.2c-1.5,0-2.7,0.4-3.6,1.3c-0.9,0.9-1.5,2.1-1.9,3.6v12.3c0.6,0.4,1.2,0.6,1.9,0.7c0.7,0.1,1.6,0.2,2.8,0.2
			c1,0,2-0.2,2.8-0.7c0.8-0.5,1.5-1.2,2.1-2.1c0.6-0.9,1-1.9,1.3-3.2c0.3-1.2,0.4-2.6,0.4-4.1c0-1.2-0.1-2.3-0.3-3.3
			c-0.2-1-0.5-1.8-0.9-2.6c-0.4-0.7-1-1.3-1.7-1.7C238.8,33.4,237.9,33.2,236.8,33.2z"/>
		<path class="st0" d="M266.1,52.9h-10.6v-2.1h3.1V32.9h-4.3l-0.8,0.8v4.4h-2.7v-7.3h20v7.3h-2.7v-4.4l-0.8-0.8H263v17.9h3.1V52.9z"
			/>
		<path class="st0" d="M274.4,30.8h10.1v2.1h-2.8v12.9l-0.3,4.5h0.3l1.6-3.7l8.3-15.8h8.2v2.1h-3.1v17.9h3.1v2.1h-10.1v-2.1h2.8
			V37.4l0.5-4.3h-0.3l-1.8,4.2l-8.4,15.7h-8.1v-2.1h3.1V32.9h-3.1V30.8z"/>
		<path class="st0" d="M323.9,61.3h-10.4v-2.1h3.1v-7.5c-0.5,0.5-1.1,0.9-1.7,1.2c-0.7,0.3-1.5,0.4-2.4,0.4c-1.3,0-2.6-0.2-3.7-0.6
			c-1.1-0.4-2.1-1.1-2.9-1.9c-0.8-0.9-1.4-2-1.8-3.3c-0.4-1.3-0.7-3-0.7-4.8c0-2.1,0.2-3.9,0.7-5.5c0.4-1.5,1.1-2.8,1.9-3.8
			c0.8-1,1.8-1.7,3-2.2c1.2-0.5,2.5-0.7,3.9-0.7c0.8,0,1.5,0.2,2.2,0.5c0.7,0.3,1.1,0.6,1.4,0.9v-8.3H313v-2.1h7.8v10.7
			c0.5-0.5,1.1-0.9,1.9-1.2c0.8-0.3,1.6-0.5,2.5-0.5c1.3,0,2.5,0.2,3.6,0.6c1.1,0.4,2,1,2.8,1.8c0.8,0.8,1.4,1.9,1.8,3.1
			c0.4,1.3,0.6,2.8,0.6,4.5c0,2.2-0.2,4.2-0.7,5.8c-0.5,1.6-1.1,2.9-2,4c-0.8,1-1.8,1.8-3,2.3c-1.1,0.5-2.4,0.7-3.7,0.7
			c-0.8,0-1.5-0.1-2.2-0.4c-0.7-0.3-1.2-0.6-1.6-1v7.2h3.1V61.3z M313.6,51c0.5,0,1-0.1,1.6-0.2c0.6-0.1,1-0.4,1.5-0.8V33.5
			c-0.4-0.2-0.8-0.4-1.2-0.6c-0.4-0.1-1.1-0.2-1.9-0.2c-0.8,0-1.5,0.2-2.1,0.5c-0.7,0.3-1.2,0.8-1.7,1.4c-0.5,0.7-0.9,1.5-1.1,2.5
			c-0.3,1-0.4,2.3-0.4,3.7c0,2,0.1,3.6,0.4,4.9c0.3,1.3,0.7,2.3,1.1,3.1c0.5,0.8,1.1,1.3,1.7,1.6C312.1,50.9,312.9,51,313.6,51z
			 M324,32.8c-0.6,0-1.2,0.1-1.8,0.2c-0.5,0.1-1,0.4-1.4,0.7v16.5c0.4,0.3,0.8,0.5,1.3,0.6c0.5,0.1,1.1,0.2,1.8,0.2
			c0.7,0,1.4-0.2,2-0.5c0.7-0.3,1.2-0.8,1.7-1.5c0.5-0.7,0.9-1.6,1.2-2.8c0.3-1.1,0.5-2.5,0.5-4.2c0-1.8-0.1-3.3-0.3-4.5
			c-0.2-1.2-0.6-2.2-1-2.9c-0.4-0.7-1-1.2-1.7-1.5C325.6,32.9,324.8,32.8,324,32.8z"/>
		<path class="st0" d="M337.7,30.8h10.1v2.1H345v12.9l-0.3,4.5h0.3l1.6-3.7l8.3-15.8h8.2v2.1H360v17.9h3.1v2.1H353v-2.1h2.8V37.4
			l0.5-4.3H356l-1.8,4.2l-8.4,15.7h-8.1v-2.1h3.1V32.9h-3.1V30.8z"/>
		<path class="st0" d="M380.3,30.8h8.7v2.1h-2.7l-6.5,7.5l8.6,10.3h2.1v2.1h-6l-7.8-10.4h-2.4v8.3h2.9v2.1h-10.5v-2.1h3.1V32.9h-3.1
			v-2.1h9.9v2.1h-2.4v7.8h2.2l6.6-7.8h-2.6V30.8z"/>
		<path class="st0" d="M410.1,47.1c0,0.6,0,1.3,0,2c0,0.7,0.1,1.3,0.1,1.8h2.8v2.1h-6.7l-0.4-4h-0.2c-0.1,0.6-0.4,1.1-0.8,1.6
			c-0.4,0.5-0.9,1-1.4,1.4c-0.6,0.4-1.3,0.8-2,1c-0.8,0.3-1.7,0.4-2.6,0.4c-1,0-1.8-0.1-2.6-0.4c-0.8-0.3-1.5-0.7-2.1-1.2
			c-0.6-0.5-1-1.1-1.4-1.8c-0.3-0.7-0.5-1.5-0.5-2.4c0-1.4,0.3-2.5,0.9-3.4c0.6-0.9,1.4-1.6,2.5-2.1c1.1-0.5,2.5-0.9,4.2-1.1
			c1.7-0.2,3.6-0.3,5.9-0.4c0.1-0.4,0.1-0.9,0.1-1.3c0-0.4,0-0.8,0-1.2c0-1.7-0.3-3-0.9-3.9c-0.6-0.9-1.6-1.4-3.2-1.4
			c-0.6,0-1.2,0-1.8,0.1c-0.6,0.1-1.2,0.2-1.8,0.5v3.8h-3.8v-4.7c1-0.5,2.2-1,3.6-1.4c1.4-0.4,3-0.6,4.9-0.6c1.6,0,2.9,0.2,3.9,0.6
			c1,0.4,1.7,0.9,2.2,1.6c0.5,0.7,0.9,1.4,1,2.2c0.2,0.8,0.2,1.6,0.2,2.5c0,1.8,0,3.5-0.1,5.1C410.1,44,410.1,45.5,410.1,47.1z
			 M400.8,50.5c0.7,0,1.3-0.1,1.8-0.3c0.5-0.2,1-0.5,1.4-0.8c0.4-0.3,0.8-0.7,1-1.1c0.3-0.4,0.5-0.8,0.7-1.1v-5
			c-1.8,0-3.3,0.1-4.4,0.4c-1.1,0.2-2,0.6-2.7,0.9c-0.6,0.4-1.1,0.9-1.3,1.4c-0.2,0.5-0.4,1.1-0.4,1.7c0,1.3,0.3,2.2,1,2.9
			C398.7,50.2,399.6,50.5,400.8,50.5z"/>
		<path class="st0" d="M431.5,52.9h-10.6v-2.1h3.1V32.9h-4.3l-0.8,0.8v4.4h-2.7v-7.3h20v7.3h-2.7v-4.4l-0.8-0.8h-4.3v17.9h3.1V52.9z
			"/>
	</g>
	<circle class="st1" cx="40.2" cy="40.2" r="38.7"/>
	<circle class="st2" cx="40.2" cy="40.2" r="32.8"/>
</g>
<g id="Layer_3">
	<path class="st3" d="M67.5,40.2c0,5.8-1.8,11.2-4.9,15.6c-4.9,7-13.1,11.7-22.3,11.7c-9.3,0-17.5-4.6-22.4-11.7
		C14.8,51.4,13,46,13,40.2c0-5.3,1.5-10.3,4.2-14.5C22,18.1,30.5,13,40.2,13c9.8,0,18.4,5.2,23.2,12.9C66,30,67.5,35,67.5,40.2z"/>
	<path class="st4" d="M40.2,13c28.7,31.1,0,54.5,0,54.5"/>
	<polyline class="st4" points="13,40.2 27.4,40.2 52.8,40.2 67.5,40.2 	"/>
	<polyline class="st4" points="17.2,25.7 49.4,25.8 63.4,25.9 	"/>
	<line class="st4" x1="17.2" y1="55.8" x2="63.4" y2="55.8"/>
	<path class="st4" d="M40.2,13c-4.1,4.4-7,8.6-9,12.7c-12.2,24.6,9,41.8,9,41.8"/>
	<line class="st4" x1="40.2" y1="13" x2="40.2" y2="67.5"/>
</g>
</svg>
